# xmcd
#
# Track frame offsets:
#	151
#	23175
#	44590
#	73939
#	97285
#	140364
#	168181
#	190525
#	232432
#
# Disc length: 3625 seconds
#
# Revision: 1
# Processed by: cddbd v1.5.1PL0 Copyright (c) Steve Scherf et al.
# Submitted via: audiograbber 1.82.02
#
DISCID=840e2709
DTITLE=Rob Donnelly Band - Dirtfile
DYEAR=2001
DGENRE=Blues
TTITLE0=Same Old Blues
TTITLE1=Walking Blues
TTITLE2=If I Could
TTITLE3=Human
TTITLE4=Driftin'
TTITLE5=Tore Down
TTITLE6=Paint My House
TTITLE7=I Don't Wanna Know
TTITLE8=Blind Willie Me Tell
EXTD=DTACD7
EXTT0=
EXTT1=
EXTT2=
EXTT3=
EXTT4=
EXTT5=
EXTT6=
EXTT7=
EXTT8=
PLAYORDER=
